<svg width="50" height="25" viewBox="0 0 50 25" fill="none" xmlns="http://www.w3.org/2000/svg">
<rect width="50" height="25" fill="white"/>
<path d="M14.152 17V6.6H20.872V8.904H16.904V10.536H20.296V12.84H16.904V14.696H21.032V17H14.152ZM24.8666 17V13.416L21.7306 6.6H24.6746L25.4426 8.776C25.5706 9.17067 25.6986 9.55467 25.8266 9.928C25.9546 10.3013 26.088 10.6907 26.2266 11.096H26.2906C26.4293 10.6907 26.5626 10.3013 26.6906 9.928C26.8293 9.55467 26.968 9.17067 27.1066 8.776L27.8746 6.6H30.7546L27.6186 13.416V17H24.8666ZM31.7458 17V6.6H35.4898C36.2151 6.6 36.8764 6.67467 37.4738 6.824C38.0711 6.97333 38.5458 7.23467 38.8978 7.608C39.2498 7.98133 39.4258 8.50933 39.4258 9.192C39.4258 9.704 39.3084 10.168 39.0738 10.584C38.8498 10.9893 38.5298 11.272 38.1138 11.432V11.496C38.6791 11.6347 39.1164 11.8907 39.4258 12.264C39.7458 12.6267 39.9058 13.1387 39.9058 13.8C39.9058 14.5467 39.7191 15.1547 39.3458 15.624C38.9724 16.0933 38.4764 16.44 37.8578 16.664C37.2391 16.888 36.5564 17 35.8098 17H31.7458ZM34.4978 10.664H35.4258C35.8738 10.664 36.2044 10.568 36.4178 10.376C36.6311 10.184 36.7378 9.928 36.7378 9.608C36.7378 9.288 36.6311 9.05867 36.4178 8.92C36.2044 8.78133 35.8738 8.712 35.4258 8.712H34.4978V10.664ZM34.4978 14.888H35.6178C36.1618 14.888 36.5618 14.792 36.8178 14.6C37.0844 14.408 37.2178 14.12 37.2178 13.736C37.2178 13.352 37.0844 13.08 36.8178 12.92C36.5618 12.76 36.1618 12.68 35.6178 12.68H34.4978V14.888Z" fill="#173374"/>
<path d="M5.9108 4C2.83893 6.74895 -1.3493 13.8775 6.47273 20.4" stroke="#173374" stroke-width="2" stroke-linecap="round"/>
<path d="M7.98825 6.11613C5.79406 8.15567 2.80247 13.4446 8.38963 18.2839" stroke="#97C653" stroke-width="2" stroke-linecap="round"/>
<path d="M10.2519 8.25974C8.78914 9.50926 6.79474 12.7495 10.5195 15.7143" stroke="#173374" stroke-width="2" stroke-linecap="round"/>
</svg>
