<svg width="61" height="28" viewBox="0 0 61 28" fill="none" xmlns="http://www.w3.org/2000/svg">
<g clip-path="url(#clip0_614_4)">
<path d="M5.72241 24V4.456H19.0224V8.236H9.97841V12.24H17.7344V15.992H9.97841V20.22H19.0224V24H5.72241ZM27.5182 24V16.356L20.8262 4.456H25.5862L29.7862 12.24H29.8422L33.8742 4.456H38.4942L31.8022 16.328V24H27.5182ZM40.9138 4.456H50.4058C52.0298 4.456 53.2898 4.91333 54.1858 5.828C55.1005 6.74267 55.5578 7.956 55.5578 9.468C55.5578 10.2147 55.4551 10.8493 55.2498 11.372C55.0631 11.8947 54.8018 12.324 54.4658 12.66C54.1485 12.996 53.7658 13.248 53.3178 13.416C52.8885 13.5653 52.4218 13.6493 51.9178 13.668V13.836C52.3845 13.836 52.8698 13.92 53.3738 14.088C53.8965 14.256 54.3725 14.5267 54.8018 14.9C55.2311 15.2547 55.5858 15.7213 55.8658 16.3C56.1645 16.8787 56.3138 17.588 56.3138 18.428C56.3138 19.1933 56.1831 19.9213 55.9218 20.612C55.6791 21.284 55.3338 21.872 54.8858 22.376C54.4378 22.88 53.9058 23.2813 53.2898 23.58C52.6738 23.86 52.0018 24 51.2738 24H40.9138V4.456ZM45.1698 20.416H50.0698C50.6298 20.416 51.0685 20.2667 51.3858 19.968C51.7218 19.6507 51.8898 19.212 51.8898 18.652V17.7C51.8898 17.14 51.7218 16.7107 51.3858 16.412C51.0685 16.0947 50.6298 15.936 50.0698 15.936H45.1698V20.416ZM45.1698 12.464H49.3978C49.9578 12.464 50.3965 12.3053 50.7138 11.988C51.0311 11.6707 51.1898 11.232 51.1898 10.672V9.832C51.1898 9.272 51.0311 8.83333 50.7138 8.516C50.3965 8.19867 49.9578 8.04 49.3978 8.04H45.1698V12.464Z" fill="#073679"/>
</g>
<defs>
<clipPath id="clip0_614_4">
<rect width="61" height="28" fill="white"/>
</clipPath>
</defs>
</svg>
